<?xml version="1.0" encoding="UTF-8" standalone="no"?>
<!DOCTYPE svg PUBLIC "-//W3C//DTD SVG 1.1//EN"
 "http://www.w3.org/Graphics/SVG/1.1/DTD/svg11.dtd">
<!-- Generated by graphviz version 2.40.1 (20161225.0304)
 -->
<!-- Title: G Pages: 1 -->
<svg width="224pt" height="407pt"
 viewBox="0.00 0.00 224.00 407.00" xmlns="http://www.w3.org/2000/svg" xmlns:xlink="http://www.w3.org/1999/xlink">
<g id="graph0" class="graph" transform="scale(1 1) rotate(0) translate(4 403)">
<title>G</title>
<polygon fill="#ffffff" stroke="transparent" points="-4,4 -4,-403 220,-403 220,4 -4,4"/>
<g id="clust1" class="cluster">
<title>cluster_1</title>
<polygon fill="none" stroke="#0000ff" points="8,-64 8,-355 82,-355 82,-64 8,-64"/>
<text text-anchor="middle" x="45" y="-339.8" font-family="Times,serif" font-size="14.00" fill="#000000">process #2</text>
</g>
<g id="clust2" class="cluster">
<title>cluster_0</title>
<polygon fill="#d3d3d3" stroke="#d3d3d3" points="118,-64 118,-355 208,-355 208,-64 118,-64"/>
<text text-anchor="middle" x="163" y="-339.8" font-family="Times,serif" font-size="14.00" fill="#000000">process #1</text>
</g>
<!-- b0 -->
<g id="node1" class="node">
<title>b0</title>
<ellipse fill="#d3d3d3" stroke="#000000" cx="46" cy="-306" rx="27" ry="18"/>
<text text-anchor="middle" x="46" y="-302.3" font-family="Times,serif" font-size="14.00" fill="#000000">b0</text>
</g>
<!-- b1 -->
<g id="node2" class="node">
<title>b1</title>
<ellipse fill="#d3d3d3" stroke="#000000" cx="45" cy="-234" rx="27" ry="18"/>
<text text-anchor="middle" x="45" y="-230.3" font-family="Times,serif" font-size="14.00" fill="#000000">b1</text>
</g>
<!-- b0&#45;&gt;b1 -->
<g id="edge1" class="edge">
<title>b0&#45;&gt;b1</title>
<path fill="none" stroke="#000000" d="M45.7477,-287.8314C45.6407,-280.131 45.5135,-270.9743 45.3947,-262.4166"/>
<polygon fill="#000000" stroke="#000000" points="48.8944,-262.3637 45.2557,-252.4133 41.8951,-262.4609 48.8944,-262.3637"/>
</g>
<!-- b2 -->
<g id="node3" class="node">
<title>b2</title>
<ellipse fill="#d3d3d3" stroke="#000000" cx="43" cy="-162" rx="27" ry="18"/>
<text text-anchor="middle" x="43" y="-158.3" font-family="Times,serif" font-size="14.00" fill="#000000">b2</text>
</g>
<!-- b1&#45;&gt;b2 -->
<g id="edge2" class="edge">
<title>b1&#45;&gt;b2</title>
<path fill="none" stroke="#000000" d="M44.4953,-215.8314C44.2814,-208.131 44.0271,-198.9743 43.7894,-190.4166"/>
<polygon fill="#000000" stroke="#000000" points="47.2879,-190.3122 43.5115,-180.4133 40.2906,-190.5066 47.2879,-190.3122"/>
</g>
<!-- b3 -->
<g id="node4" class="node">
<title>b3</title>
<ellipse fill="#d3d3d3" stroke="#000000" cx="47" cy="-90" rx="27" ry="18"/>
<text text-anchor="middle" x="47" y="-86.3" font-family="Times,serif" font-size="14.00" fill="#000000">b3</text>
</g>
<!-- b2&#45;&gt;b3 -->
<g id="edge3" class="edge">
<title>b2&#45;&gt;b3</title>
<path fill="none" stroke="#000000" d="M44.0094,-143.8314C44.4372,-136.131 44.9459,-126.9743 45.4213,-118.4166"/>
<polygon fill="#000000" stroke="#000000" points="48.9169,-118.592 45.977,-108.4133 41.9276,-118.2037 48.9169,-118.592"/>
</g>
<!-- a3 -->
<g id="node8" class="node">
<title>a3</title>
<ellipse fill="#ffffff" stroke="#ffffff" cx="153" cy="-90" rx="27" ry="18"/>
<text text-anchor="middle" x="153" y="-86.3" font-family="Times,serif" font-size="14.00" fill="#000000">a3</text>
</g>
<!-- b2&#45;&gt;a3 -->
<g id="edge8" class="edge">
<title>b2&#45;&gt;a3</title>
<path fill="none" stroke="#000000" d="M62.4126,-149.2936C79.742,-137.9507 105.3318,-121.201 124.8972,-108.3946"/>
<polygon fill="#000000" stroke="#000000" points="126.9613,-111.2267 133.4115,-102.8216 123.1276,-105.3698 126.9613,-111.2267"/>
</g>
<!-- end -->
<g id="node9" class="node">
<title>end</title>
<polygon fill="none" stroke="#000000" points="118,-36 82,-36 82,0 118,0 118,-36"/>
<polyline fill="none" stroke="#000000" points="94,-36 82,-24 "/>
<polyline fill="none" stroke="#000000" points="82,-12 94,0 "/>
<polyline fill="none" stroke="#000000" points="106,0 118,-12 "/>
<polyline fill="none" stroke="#000000" points="118,-24 106,-36 "/>
<text text-anchor="middle" x="100" y="-14.3" font-family="Times,serif" font-size="14.00" fill="#000000">end</text>
</g>
<!-- b3&#45;&gt;end -->
<g id="edge9" class="edge">
<title>b3&#45;&gt;end</title>
<path fill="none" stroke="#000000" d="M59.0265,-73.6621C65.4044,-64.9978 73.3958,-54.1415 80.6236,-44.3227"/>
<polygon fill="#000000" stroke="#000000" points="83.6093,-46.1706 86.7188,-36.0423 77.9719,-42.0209 83.6093,-46.1706"/>
</g>
<!-- a0 -->
<g id="node5" class="node">
<title>a0</title>
<ellipse fill="#ffffff" stroke="#ffffff" cx="153" cy="-306" rx="27" ry="18"/>
<text text-anchor="middle" x="153" y="-302.3" font-family="Times,serif" font-size="14.00" fill="#000000">a0</text>
</g>
<!-- a1 -->
<g id="node6" class="node">
<title>a1</title>
<ellipse fill="#ffffff" stroke="#ffffff" cx="153" cy="-234" rx="27" ry="18"/>
<text text-anchor="middle" x="153" y="-230.3" font-family="Times,serif" font-size="14.00" fill="#000000">a1</text>
</g>
<!-- a0&#45;&gt;a1 -->
<g id="edge4" class="edge">
<title>a0&#45;&gt;a1</title>
<path fill="none" stroke="#000000" d="M153,-287.8314C153,-280.131 153,-270.9743 153,-262.4166"/>
<polygon fill="#000000" stroke="#000000" points="156.5001,-262.4132 153,-252.4133 149.5001,-262.4133 156.5001,-262.4132"/>
</g>
<!-- a1&#45;&gt;b3 -->
<g id="edge10" class="edge">
<title>a1&#45;&gt;b3</title>
<path fill="none" stroke="#000000" d="M141.0465,-217.7613C122.5174,-192.5897 86.7423,-143.9895 65.0534,-114.5254"/>
<polygon fill="#000000" stroke="#000000" points="67.8193,-112.3788 59.0724,-106.4003 62.182,-116.5286 67.8193,-112.3788"/>
</g>
<!-- a2 -->
<g id="node7" class="node">
<title>a2</title>
<ellipse fill="#ffffff" stroke="#ffffff" cx="153" cy="-162" rx="27" ry="18"/>
<text text-anchor="middle" x="153" y="-158.3" font-family="Times,serif" font-size="14.00" fill="#000000">a2</text>
</g>
<!-- a1&#45;&gt;a2 -->
<g id="edge5" class="edge">
<title>a1&#45;&gt;a2</title>
<path fill="none" stroke="#000000" d="M153,-215.8314C153,-208.131 153,-198.9743 153,-190.4166"/>
<polygon fill="#000000" stroke="#000000" points="156.5001,-190.4132 153,-180.4133 149.5001,-190.4133 156.5001,-190.4132"/>
</g>
<!-- a2&#45;&gt;a3 -->
<g id="edge6" class="edge">
<title>a2&#45;&gt;a3</title>
<path fill="none" stroke="#000000" d="M153,-143.8314C153,-136.131 153,-126.9743 153,-118.4166"/>
<polygon fill="#000000" stroke="#000000" points="156.5001,-118.4132 153,-108.4133 149.5001,-118.4133 156.5001,-118.4132"/>
</g>
<!-- a3&#45;&gt;a0 -->
<g id="edge7" class="edge">
<title>a3&#45;&gt;a0</title>
<path fill="none" stroke="#000000" d="M167.1229,-105.7156C175.2535,-115.8532 184.6901,-129.7653 189,-144 202.9096,-189.9404 202.9096,-206.0596 189,-252 185.7339,-262.7873 179.5236,-273.3892 173.1687,-282.3037"/>
<polygon fill="#000000" stroke="#000000" points="170.3715,-280.1999 167.1229,-290.2844 175.9513,-284.4268 170.3715,-280.1999"/>
</g>
<!-- a3&#45;&gt;end -->
<g id="edge11" class="edge">
<title>a3&#45;&gt;end</title>
<path fill="none" stroke="#000000" d="M140.9735,-73.6621C134.5956,-64.9978 126.6042,-54.1415 119.3764,-44.3227"/>
<polygon fill="#000000" stroke="#000000" points="122.0281,-42.0209 113.2812,-36.0423 116.3907,-46.1706 122.0281,-42.0209"/>
</g>
<!-- start -->
<g id="node10" class="node">
<title>start</title>
<polygon fill="none" stroke="#000000" points="101,-399 64,-381 101,-363 138,-381 101,-399"/>
<polyline fill="none" stroke="#000000" points="74.7908,-386.2496 74.7908,-375.7504 "/>
<polyline fill="none" stroke="#000000" points="90.2092,-368.2496 111.7908,-368.2496 "/>
<polyline fill="none" stroke="#000000" points="127.2092,-375.7504 127.2092,-386.2496 "/>
<polyline fill="none" stroke="#000000" points="111.7908,-393.7504 90.2092,-393.7504 "/>
<text text-anchor="middle" x="101" y="-377.3" font-family="Times,serif" font-size="14.00" fill="#000000">start</text>
</g>
<!-- start&#45;&gt;b0 -->
<g id="edge12" class="edge">
<title>start&#45;&gt;b0</title>
<path fill="none" stroke="#000000" d="M91.1671,-367.5915C83.6356,-357.3213 73.0383,-342.8704 64.0012,-330.5471"/>
<polygon fill="#000000" stroke="#000000" points="66.787,-328.4273 58.0509,-322.433 61.1421,-332.5668 66.787,-328.4273"/>
</g>
<!-- start&#45;&gt;a0 -->
<g id="edge13" class="edge">
<title>start&#45;&gt;a0</title>
<path fill="none" stroke="#000000" d="M110.5376,-367.2438C117.5685,-357.1031 127.3278,-343.0272 135.7176,-330.9265"/>
<polygon fill="#000000" stroke="#000000" points="138.7045,-332.7612 141.526,-322.549 132.9519,-328.7728 138.7045,-332.7612"/>
</g>
<!-- b -->
<g id="node11" class="node">
<title>b</title>
<ellipse fill="none" stroke="#000000" cx="183" cy="-381" rx="27" ry="18"/>
<text text-anchor="middle" x="183" y="-377.3" font-family="Times,serif" font-size="14.00" fill="#000000">b</text>
</g>
</g>
</svg>
